<svg width="24" height="24" viewBox="0 0 24 24" fill="none" xmlns="http://www.w3.org/2000/svg">
<g clip-path="url(#clip0_10742_36379)">
<path d="M13.0435 11.6522V16.1739C13.0435 17.4956 13.8087 18.7478 15.0608 19.3043L16.5217 20L17.9826 19.3043C19.1652 18.7478 20 17.4956 20 16.1739V11.6522H13.0435ZM18.6087 16.1739C18.6087 17.0087 18.1217 17.7043 17.4261 18.0522L16.5217 18.4696L15.6174 18.0522C14.9217 17.7043 14.4348 16.9391 14.4348 16.1739V13.0435H18.6087V16.1739Z" fill="#A4B1CD"/>
<path d="M10.2609 13.0435C8.73045 13.0435 7.47827 11.7913 7.47827 10.2609C7.47827 8.73045 8.73045 7.47827 10.2609 7.47827C11.7913 7.47827 13.0435 8.73045 13.0435 10.2609H11.6522C11.6522 9.49566 11.0261 8.86958 10.2609 8.86958C9.49566 8.86958 8.86958 9.49566 8.86958 10.2609C8.86958 11.0261 9.49566 11.6522 10.2609 11.6522V13.0435Z" fill="#A4B1CD"/>
<path d="M10.2609 16.5217C6.78261 16.5217 4 13.7391 4 10.2609C4 6.78261 6.78261 4 10.2609 4C13.7391 4 16.5217 6.78261 16.5217 10.2609H15.1304C15.1304 7.54783 12.9739 5.3913 10.2609 5.3913C7.54783 5.3913 5.3913 7.54783 5.3913 10.2609C5.3913 12.9739 7.54783 15.1304 10.2609 15.1304V16.5217Z" fill="#A4B1CD"/>
</g>
<defs>
<clipPath id="clip0_10742_36379">
<rect width="24" height="24" fill="white"/>
</clipPath>
</defs>
</svg>
