<svg width="24" height="24" viewBox="0 0 24 24" fill="none" xmlns="http://www.w3.org/2000/svg">
<g clip-path="url(#clip0_10742_36398)">
<path d="M16.7216 9.96759C16.4867 8.75472 15.8373 7.66131 14.8846 6.87476C13.932 6.08822 12.7354 5.65752 11.5 5.65649V6.71873C12.4884 6.72011 13.4456 7.06494 14.2078 7.69421C14.97 8.32349 15.4898 9.19809 15.6782 10.1683L15.8159 10.8834L16.5324 11.0131C17.2505 11.1425 17.8942 11.5359 18.3369 12.1158C18.7797 12.6957 18.9896 13.4202 18.9254 14.147C18.8611 14.8738 18.5273 15.5503 17.9897 16.0435C17.452 16.5367 16.7493 16.811 16.0197 16.8125H11.5V17.875H16.0197C17.0146 17.8735 17.973 17.4999 18.7065 16.8276C19.44 16.1554 19.8955 15.2331 19.9835 14.242C20.0715 13.2509 19.7855 12.2628 19.182 11.4719C18.5784 10.6809 17.7007 10.1443 16.7216 9.96759Z" fill="#A4B1CD"/>
<path d="M10.4375 15.75H7.25V16.8125H10.4375V15.75Z" fill="#A4B1CD"/>
<path d="M6.1875 15.75H5.125V16.8125H6.1875V15.75Z" fill="#A4B1CD"/>
<path d="M10.4375 13.625H6.1875V14.6875H10.4375V13.625Z" fill="#A4B1CD"/>
<path d="M5.125 13.625H4.0625V14.6875H5.125V13.625Z" fill="#A4B1CD"/>
<path d="M10.4375 11.5H7.25V12.5625H10.4375V11.5Z" fill="#A4B1CD"/>
<path d="M6.1875 11.5H5.125V12.5625H6.1875V11.5Z" fill="#A4B1CD"/>
<path d="M10.4375 9.375H8.3125V10.4375H10.4375V9.375Z" fill="#A4B1CD"/>
<path d="M7.25 9.375H6.1875V10.4375H7.25V9.375Z" fill="#A4B1CD"/>
<path d="M10.4375 7.25H9.375V8.3125H10.4375V7.25Z" fill="#A4B1CD"/>
</g>
<defs>
<clipPath id="clip0_10742_36398">
<rect width="24" height="24" fill="white"/>
</clipPath>
</defs>
</svg>
