<svg width="24" height="24" viewBox="0 0 24 24" fill="none" xmlns="http://www.w3.org/2000/svg">
<g clip-path="url(#clip0_10742_36370)">
<path d="M10.4 12H7.19995V13.2H10.4V12Z" fill="#A4B1CD"/>
<path d="M4.6 13.2C4.93137 13.2 5.2 12.9314 5.2 12.6C5.2 12.2686 4.93137 12 4.6 12C4.26863 12 4 12.2686 4 12.6C4 12.9314 4.26863 13.2 4.6 13.2Z" fill="#A4B1CD"/>
<path d="M10.4 8.8H4V10H10.4V8.8Z" fill="#A4B1CD"/>
<path d="M13.6 5.60001H7.19995V6.80001H13.6V5.60001Z" fill="#A4B1CD"/>
<path d="M4.6 6.80001C4.93137 6.80001 5.2 6.53138 5.2 6.20001C5.2 5.86864 4.93137 5.60001 4.6 5.60001C4.26863 5.60001 4 5.86864 4 6.20001C4 6.53138 4.26863 6.80001 4.6 6.80001Z" fill="#A4B1CD"/>
<path d="M16 18.4L14.32 17.6C12.96 16.96 12 15.52 12 14V8.8H20V14C20 15.52 19.12 16.96 17.68 17.6L16 18.4ZM13.2 10V14C13.2 14.96 14 16 14.8 16.4L16 16.8L17.2 16.4C18 16 18.8 14.88 18.8 14V10H13.2Z" fill="#A4B1CD"/>
</g>
<defs>
<clipPath id="clip0_10742_36370">
<rect width="24" height="24" fill="white"/>
</clipPath>
</defs>
</svg>
