<svg width="24" height="24" viewBox="0 0 24 24" fill="none" xmlns="http://www.w3.org/2000/svg">
<g clip-path="url(#clip0_10742_36366)">
<path d="M12 21C11.8937 21.0001 11.7894 20.972 11.6976 20.9186L4.49761 16.7186C4.40702 16.6657 4.33187 16.5899 4.27964 16.499C4.22742 16.408 4.19994 16.3049 4.19995 16.2V7.79997C4.19991 7.69509 4.22738 7.59204 4.27961 7.5011C4.33184 7.41016 4.40701 7.3345 4.49761 7.28169L11.6976 3.08168C11.7894 3.02815 11.8937 2.99994 12 2.99994C12.1062 2.99994 12.2105 3.02815 12.3023 3.08168L19.5023 7.28169L18.8976 8.31825L12 4.29458L5.39995 8.14449V15.8555L12 19.7057L18.6 15.8555V11.4H19.8V16.2C19.8 16.3049 19.7725 16.408 19.7203 16.499C19.6681 16.5899 19.5929 16.6657 19.5023 16.7186L12.3023 20.9186C12.2105 20.972 12.1062 21.0001 12 21Z" fill="#A4B1CD"/>
<path d="M9.00003 15.48C9.3314 15.48 9.60003 15.2113 9.60003 14.88C9.60003 14.5486 9.3314 14.28 9.00003 14.28C8.66865 14.28 8.40002 14.5486 8.40002 14.88C8.40002 15.2113 8.66865 15.48 9.00003 15.48Z" fill="#A4B1CD"/>
<path d="M9.00003 10.62C9.3314 10.62 9.60003 10.3514 9.60003 10.02C9.60003 9.68864 9.3314 9.42001 9.00003 9.42001C8.66865 9.42001 8.40002 9.68864 8.40002 10.02C8.40002 10.3514 8.66865 10.62 9.00003 10.62Z" fill="#A4B1CD"/>
<path d="M13.2 12H8.40002V12.9H13.2V12Z" fill="#A4B1CD"/>
<path d="M15.6001 14.4H10.8V15.3H15.6001V14.4Z" fill="#A4B1CD"/>
<path d="M15.6001 9.59998H10.8V10.5H15.6001V9.59998Z" fill="#A4B1CD"/>
</g>
<defs>
<clipPath id="clip0_10742_36366">
<rect width="24" height="24" fill="white"/>
</clipPath>
</defs>
</svg>
